<?xml version="1.0" standalone="no"?>
<!DOCTYPE svg PUBLIC "-//W3C//DTD SVG 20010904//EN"
 "http://www.w3.org/TR/2001/REC-SVG-20010904/DTD/svg10.dtd">
<svg version="1.0" xmlns="http://www.w3.org/2000/svg"
 width="2560.000000pt" height="896.000000pt" viewBox="0 0 2560.000000 896.000000"
 preserveAspectRatio="xMidYMid meet">

<g transform="translate(0.000000,896.000000) scale(0.100000,-0.100000)"
fill="#000000" stroke="none">
<path d="M25290 8603 c-30 -39 -50 -89 -50 -129 0 -18 -4 -36 -10 -39 -5 -3
-10 -15 -10 -27 0 -22 -52 -121 -81 -153 -10 -11 -25 -37 -34 -58 -17 -42 -22
-44 -41 -19 -12 15 -13 14 -8 -13 4 -25 -2 -37 -38 -75 -24 -25 -51 -49 -61
-55 -15 -9 -16 -15 -7 -47 15 -52 60 -93 60 -55 0 17 38 53 46 44 3 -3 1 -14
-5 -25 -14 -27 -14 -32 4 -32 20 0 19 -9 -4 -63 -21 -49 -45 -69 -138 -116
-61 -30 -73 -43 -53 -56 5 -3 7 -11 5 -18 -8 -19 51 -74 86 -82 24 -5 36 -2
53 14 39 37 51 18 16 -26 -11 -14 -20 -35 -20 -47 0 -12 -14 -43 -30 -70 -22
-33 -28 -54 -24 -71 8 -33 -11 -33 -76 0 -27 14 -54 25 -60 25 -16 0 -12 -58
6 -86 22 -33 8 -49 -30 -34 -40 15 -83 12 -90 -6 -11 -30 -6 -53 18 -71 13
-10 30 -33 39 -50 20 -38 33 -43 108 -43 116 0 148 -42 105 -136 -14 -30 -30
-82 -36 -114 -6 -33 -17 -78 -25 -100 -13 -37 -5 -60 9 -24 7 18 26 10 26 -11
0 -8 -12 -28 -27 -44 -23 -24 -39 -30 -85 -34 -32 -3 -58 -2 -58 3 0 9 -42 24
-97 35 -31 6 -33 5 -33 -21 0 -19 12 -39 43 -66 50 -48 87 -64 161 -73 65 -8
70 -21 25 -59 -51 -43 -90 -59 -151 -61 -66 -3 -78 -9 -78 -38 1 -24 46 -80
74 -90 11 -4 16 -13 12 -22 -3 -8 -9 -22 -12 -30 -4 -9 3 -19 20 -26 35 -17
33 -29 -6 -29 -31 -1 -32 -2 -14 -15 10 -8 23 -16 29 -18 6 -2 3 -14 -7 -29
-11 -17 -34 -30 -72 -41 -60 -17 -80 -14 -106 18 -18 20 -18 20 -33 0 -13 -17
-18 -18 -36 -7 -19 12 -20 11 -13 -40 8 -61 16 -74 58 -92 17 -8 55 -36 85
-62 56 -51 64 -53 169 -54 93 0 138 23 206 109 31 39 61 71 66 71 48 0 -86
-153 -172 -196 -54 -27 -109 -31 -132 -9 -13 13 -16 13 -30 -1 -20 -20 -20
-47 -1 -84 18 -35 33 -37 68 -10 14 11 39 20 56 20 26 0 31 -4 31 -24 0 -31
-36 -116 -50 -116 -5 0 -10 -13 -10 -28 0 -34 -49 -88 -88 -96 -15 -4 -54 1
-87 10 -68 18 -64 18 -127 16 -27 -1 -48 -6 -48 -11 0 -19 51 -70 131 -131 76
-57 85 -62 120 -56 47 8 56 -6 30 -43 -34 -47 -77 -49 -157 -6 -81 42 -101 44
-110 9 -13 -52 41 -154 81 -154 9 0 15 -10 15 -22 0 -18 12 -28 55 -46 88 -39
90 -42 65 -85 -17 -29 -19 -38 -8 -41 7 -3 30 -10 51 -16 44 -14 48 -35 16
-87 -25 -41 -16 -53 39 -53 39 0 42 -17 7 -50 -14 -13 -25 -29 -25 -35 0 -7
-13 -30 -29 -53 -32 -43 -37 -45 -209 -72 -82 -13 -86 -18 -97 -102 -5 -39
-14 -55 -50 -90 -25 -24 -45 -52 -45 -64 0 -12 -10 -25 -24 -32 -27 -12 -37
-46 -40 -142 -1 -36 -6 -72 -11 -80 -28 -45 -44 -86 -40 -101 10 -29 -22 -87
-74 -140 -49 -49 -49 -50 -34 -77 21 -36 11 -104 -15 -101 -40 4 -42 0 -42
-68 0 -64 -1 -67 -40 -103 -34 -32 -40 -42 -34 -64 3 -14 10 -29 15 -32 17
-10 9 -54 -11 -66 -23 -14 -28 -75 -9 -109 14 -27 -4 -49 -40 -49 -40 0 -130
56 -153 96 -14 23 -27 34 -43 34 -38 0 -39 -17 -3 -66 l32 -46 -23 -17 c-18
-14 -21 -22 -14 -37 60 -120 61 -124 34 -141 -20 -13 -37 -71 -32 -115 3 -31
-25 -78 -45 -78 -21 0 -33 41 -21 68 10 21 7 27 -22 53 -19 16 -41 29 -50 30
-9 1 -27 2 -40 2 -13 1 -26 8 -28 14 -7 20 42 33 127 33 85 0 101 9 73 39 -36
37 -66 46 -157 46 -65 0 -90 4 -94 13 -3 10 9 13 49 12 97 -3 94 -5 59 45 -17
25 -30 53 -28 62 2 9 22 23 46 31 80 26 61 96 -34 122 -51 15 -58 30 -12 30
35 0 121 46 116 62 -2 6 -26 19 -53 30 -78 31 -82 37 -35 65 22 13 40 30 40
38 0 7 -25 35 -55 63 -53 49 -58 62 -25 62 9 0 26 10 38 23 29 30 20 84 -20
128 -26 28 -28 35 -18 55 17 30 6 67 -22 79 -21 9 -23 16 -20 65 3 58 -10 100
-55 177 -13 23 -30 40 -36 37 -27 -10 -49 -79 -46 -148 1 -41 -2 -71 -9 -78
-7 -7 -12 -20 -12 -29 0 -10 -9 -24 -21 -33 -17 -11 -20 -20 -14 -45 6 -27 3
-32 -20 -41 -22 -8 -24 -13 -15 -29 14 -27 13 -41 -5 -41 -9 0 -18 -8 -22 -17
-3 -10 -15 -28 -26 -40 -12 -13 -17 -29 -13 -39 3 -9 1 -23 -6 -31 -10 -12 -8
-18 11 -33 21 -15 23 -22 17 -64 -12 -79 -62 -75 -83 7 -6 25 -18 56 -27 69
-9 12 -16 29 -16 37 0 8 -15 29 -34 46 -19 17 -38 45 -42 61 -8 34 -32 64 -50
64 -23 0 -45 -46 -63 -129 -10 -44 -24 -87 -32 -97 -8 -10 -14 -41 -14 -81 -1
-41 -6 -67 -14 -72 -17 -11 -30 -73 -31 -139 0 -45 -3 -55 -20 -59 -13 -4 -25
-23 -37 -60 -16 -51 -16 -57 0 -103 23 -64 22 -67 -17 -74 -52 -10 -57 -22
-49 -125 l6 -91 28 0 c37 0 39 -26 2 -33 -40 -7 -50 0 -56 41 -12 89 -27 102
-98 82 -31 -9 -40 -18 -57 -60 -12 -28 -26 -50 -31 -50 -6 0 -11 -12 -11 -27
0 -33 -17 -20 -22 17 -2 18 -8 24 -22 22 -20 -4 -20 -8 0 88 10 47 -2 74 -41
93 l-35 17 0 82 c0 106 -6 124 -41 138 -22 9 -29 19 -29 39 0 15 -12 52 -27
82 -26 49 -31 54 -65 57 -46 4 -50 -4 -74 -128 -16 -83 -22 -99 -51 -126 -18
-17 -33 -36 -33 -42 0 -21 22 -68 42 -89 25 -27 19 -40 -11 -21 -47 29 -87
-46 -77 -141 6 -51 5 -56 -26 -88 -37 -38 -43 -90 -15 -121 15 -17 15 -21 -2
-66 -17 -45 -19 -47 -35 -31 -19 20 -17 52 3 47 9 -2 11 3 8 13 -4 8 -12 45
-18 81 -9 53 -16 68 -34 76 -15 7 -25 22 -29 43 -4 18 -13 38 -20 44 -8 6 -16
25 -19 40 -11 52 -82 94 -102 61 -12 -19 -41 -10 -63 20 -35 46 -55 53 -87 28
-24 -19 -30 -20 -67 -7 -40 13 -40 13 -71 -23 -18 -20 -42 -39 -54 -43 -22 -6
-41 -55 -28 -75 3 -5 -12 -17 -34 -26 -45 -18 -51 -32 -38 -87 7 -26 6 -46 -1
-63 -18 -38 -32 -29 -31 19 3 63 -4 70 -62 62 -42 -6 -49 -4 -49 10 0 12 6 16
20 12 11 -3 20 -1 20 3 0 13 -73 52 -103 55 -15 1 -40 15 -55 31 -15 16 -45
44 -65 62 -56 48 -115 42 -164 -17 l-21 -26 -11 28 c-6 15 -15 27 -20 27 -5 0
-42 -17 -82 -38 l-74 -38 -1 -50 c-1 -41 -4 -49 -20 -50 -30 -1 -144 -57 -144
-71 0 -7 12 -13 28 -13 19 0 23 -3 13 -9 -7 -5 -10 -14 -7 -20 5 -7 -4 -11
-24 -11 -37 0 -57 -37 -39 -71 7 -15 7 -24 -1 -33 -7 -10 -7 -22 0 -40 12 -33
13 -39 1 -32 -5 3 -12 -1 -15 -10 -9 -23 -7 -36 3 -30 10 6 25 -24 16 -32 -3
-3 -5 0 -5 6 0 6 -9 14 -21 17 -13 4 -18 12 -15 22 4 10 -2 8 -23 -6 -33 -24
-49 -16 -24 11 12 14 17 37 18 78 0 53 -3 62 -33 93 -29 30 -32 37 -22 61 15
41 13 53 -19 88 -25 28 -34 31 -78 30 l-51 -1 -12 61 c-12 64 -44 108 -77 108
-10 0 -35 -9 -55 -19 -36 -20 -36 -20 -87 0 -72 27 -95 25 -126 -13 -25 -30
-32 -32 -88 -33 -58 0 -62 -1 -80 -33 -11 -19 -21 -57 -23 -85 l-2 -52 -41 -6
c-22 -3 -44 -8 -48 -12 -4 -4 -9 -35 -11 -69 -4 -54 -9 -66 -38 -94 -29 -26
-34 -38 -34 -75 0 -43 11 -97 24 -130 5 -12 1 -18 -16 -23 -45 -12 -69 -43
-85 -110 -8 -36 -21 -70 -29 -77 -10 -8 -14 -8 -14 0 0 6 -8 11 -17 11 -14 0
-13 -3 5 -23 12 -13 22 -35 22 -49 0 -26 25 -84 41 -93 17 -11 9 -22 -19 -28
-15 -3 -40 -16 -56 -28 -28 -22 -29 -24 -22 -97 7 -88 21 -122 59 -140 30 -14
27 -37 -4 -29 -21 6 -21 8 -25 -118 -1 -57 2 -87 13 -103 31 -49 5 -29 -40 31
-62 81 -376 531 -472 674 l-75 113 -255 0 -255 0 0 125 0 125 -150 0 -150 0 0
-125 0 -125 -365 0 c-346 0 -366 -1 -384 -19 -11 -11 -52 -63 -93 -118 -41
-54 -114 -150 -163 -213 -49 -63 -111 -144 -138 -180 -110 -149 -169 -220
-177 -215 -5 3 -12 0 -16 -6 -4 -8 -3 -9 4 -5 20 12 13 -8 -16 -41 l-27 -33
-105 101 c-58 55 -193 188 -300 295 -108 107 -202 194 -211 194 -13 0 -449
-428 -503 -495 -13 -16 -33 -41 -44 -55 -11 -14 -22 -23 -24 -20 -3 3 -1 32 2
65 4 33 8 52 9 42 0 -10 7 -25 15 -33 13 -12 15 -11 21 6 3 11 4 24 0 30 -3 5
0 7 8 4 9 -3 52 31 113 91 55 53 109 106 121 118 17 16 19 23 10 29 -8 6 -5 8
8 6 13 -2 19 2 17 12 -2 8 -1 12 3 8 8 -8 42 23 40 37 -1 6 0 6 3 2 2 -5 44
32 92 82 65 67 95 91 113 91 14 0 28 6 31 13 3 6 4 3 1 -8 -3 -13 4 -26 20
-38 20 -14 24 -15 19 -2 -3 8 -10 15 -15 15 -5 0 -9 5 -9 10 0 14 27 12 33 -2
4 -10 8 -9 17 2 10 13 11 12 6 -3 -8 -24 48 -79 71 -70 12 5 14 1 8 -15 -5
-16 -2 -22 10 -22 9 0 14 -4 10 -9 -3 -6 7 -9 22 -8 23 2 28 -2 27 -20 0 -12
3 -20 7 -18 3 3 23 -7 44 -20 20 -14 42 -22 48 -18 7 4 5 -2 -3 -12 -8 -10
-10 -16 -3 -12 7 5 24 -10 43 -38 31 -44 46 -51 103 -46 9 1 17 -3 17 -8 0 -6
-10 -11 -22 -11 -21 -1 -21 -2 -5 -11 9 -6 15 -14 13 -18 -3 -4 16 -7 42 -6
32 2 35 1 10 -2 -50 -6 -49 -23 1 -23 58 0 60 -18 4 -23 l-48 -3 48 -2 c26 -1
47 -6 47 -12 0 -9 -23 -14 -57 -13 -16 1 -17 -14 -1 -23 6 -4 14 -2 16 4 2 7
11 12 19 12 14 0 14 -2 0 -18 -20 -22 -22 -38 -4 -45 9 -4 9 -6 -1 -6 -7 -1
-10 -6 -7 -11 4 -7 13 -6 27 1 15 8 19 8 14 0 -12 -18 10 -12 27 7 21 23 22
68 1 76 -8 3 -12 10 -9 16 9 15 25 12 25 -5 0 -8 3 -15 8 -15 11 1 42 26 42
35 0 4 -7 2 -15 -5 -17 -14 -19 -7 -6 19 10 19 -3 50 -16 38 -4 -5 -2 -12 6
-16 10 -7 10 -9 -2 -14 -8 -3 -23 3 -32 13 -13 14 -14 19 -3 23 7 2 3 2 -9 0
-15 -2 -23 2 -23 10 0 22 35 48 54 41 51 -20 78 91 33 134 -13 12 -31 22 -40
22 -11 0 -18 12 -22 38 -14 88 -29 125 -70 170 -40 44 -45 46 -90 44 -40 -1
-53 3 -81 27 -18 16 -50 35 -71 41 -47 16 -53 24 -53 76 0 49 -39 112 -113
185 -40 40 -47 52 -47 86 0 23 -6 46 -14 52 -7 6 -16 29 -20 50 -11 71 -62 93
-105 47 -13 -13 -33 -27 -46 -30 -13 -3 -30 -20 -38 -39 -9 -18 -25 -41 -37
-52 -11 -10 -20 -26 -20 -36 0 -19 -46 -49 -74 -49 -24 0 -36 -32 -27 -72 7
-30 6 -37 -9 -41 -14 -4 -16 -12 -10 -58 4 -29 12 -55 19 -57 6 -2 9 -8 6 -12
-3 -5 -17 -5 -32 1 -30 11 -63 -11 -63 -44 0 -11 -12 -44 -26 -74 -20 -39 -33
-55 -53 -59 -56 -12 -100 -37 -110 -63 -12 -33 -12 -42 -11 664 0 308 -3 566
-8 572 -8 12 -220 14 -1134 13 l-138 0 0 -774 0 -773 -27 4 c-26 3 -27 3 -6
-8 12 -6 24 -21 27 -33 8 -28 8 -390 0 -410 -5 -13 -13 -8 -41 23 -33 39 -88
67 -98 52 -2 -5 -30 -7 -62 -6 -62 3 -59 1 -142 104 -40 49 -35 51 -130 -65
-74 -90 -252 -304 -255 -304 0 0 0 183 1 407 1 272 6 409 13 411 5 2 10 28 10
58 l0 54 -35 0 -35 0 -1 148 c-1 81 -4 174 -8 207 l-6 60 -65 0 -65 0 2 -206
3 -207 -30 -6 -30 -6 0 -480 0 -480 -42 0 c-24 0 -63 -6 -88 -14 -35 -10 -56
-10 -93 -2 -27 6 -48 14 -48 19 1 4 1 263 1 576 l0 570 28 3 27 3 3 100 c1 55
-2 106 -7 113 -6 11 -61 14 -262 13 -140 0 -392 0 -561 -1 l-307 0 -3 -72 -3
-73 -72 -3 -73 -3 0 -433 0 -434 -25 -6 c-14 -4 -42 -21 -63 -39 -64 -57 -81
-65 -121 -60 -59 8 -99 -18 -107 -69 -4 -24 -16 -49 -30 -61 -13 -11 -27 -35
-30 -54 -16 -87 -24 -26 -24 191 0 229 1 236 20 236 35 0 22 25 -47 90 -38 35
-92 86 -120 113 l-53 49 0 144 0 144 -75 0 -75 0 -1 -47 c-1 -27 0 -61 1 -78
l2 -30 -29 26 c-217 195 -303 269 -314 269 -15 0 -95 -72 -444 -399 -193 -181
-284 -272 -272 -276 6 -2 26 -5 42 -7 l30 -3 3 -214 2 -214 -102 8 c-57 4
-114 8 -128 10 -14 2 -28 4 -32 4 -4 1 -14 14 -23 31 -8 16 -33 39 -55 50 -24
12 -42 30 -46 44 -8 31 -39 60 -58 53 -20 -8 -28 3 -15 20 23 26 -45 123 -86
123 -7 0 -39 16 -71 36 -67 40 -111 42 -163 5 -16 -12 -33 -21 -38 -21 -4 0
-7 288 -5 640 l2 640 -317 0 c-175 0 -324 4 -331 8 -9 6 -11 21 -6 50 4 23 10
40 14 37 8 -5 24 51 21 74 -1 7 2 10 8 7 6 -4 8 6 4 28 -3 18 -1 36 5 40 6 3
8 15 5 26 -4 14 0 20 12 20 10 0 15 5 12 13 -7 19 8 41 22 33 6 -4 11 -15 11
-24 0 -14 10 -17 53 -17 34 0 56 5 65 15 11 13 13 13 25 -1 10 -13 24 -14 95
-6 67 8 86 7 92 -3 6 -10 12 -11 22 -3 7 6 47 13 89 15 44 3 85 11 97 20 16
11 34 13 74 7 29 -4 85 -8 125 -8 60 -1 72 2 76 17 4 16 5 16 6 0 1 -22 21
-24 21 -3 0 20 26 19 34 -1 5 -14 9 -14 23 -3 13 11 17 11 20 2 3 -7 14 -13
24 -13 11 0 17 -5 14 -10 -4 -6 -10 -8 -15 -5 -5 3 -11 1 -15 -5 -3 -5 1 -10
9 -10 10 0 16 -9 17 -22 3 -74 10 -132 18 -142 5 -6 12 -143 15 -305 4 -162 9
-297 11 -300 3 -2 5 192 5 432 l0 437 -576 0 -575 0 2 -194 c1 -107 -2 -199
-5 -205 -5 -8 -99 -11 -302 -11 l-294 0 0 -145 c0 -122 -3 -150 -18 -172 -9
-15 -11 -24 -4 -20 7 5 12 2 12 -8 0 -12 -4 -14 -19 -5 -31 16 -51 12 -51 -10
0 -11 -6 -23 -14 -26 -21 -8 -56 14 -56 35 0 14 7 17 32 15 18 -2 24 -1 13 2
-11 4 -28 13 -37 21 -14 13 -21 13 -33 3 -12 -10 -17 -5 -31 29 -13 34 -21 41
-44 41 -22 0 -31 7 -44 35 -21 43 -38 52 -100 50 -39 -1 -53 -6 -70 -27 -12
-15 -36 -28 -57 -32 -24 -4 -39 -13 -42 -25 -3 -12 -18 -21 -40 -25 -40 -8
-47 -15 -57 -60 -5 -27 -10 -31 -36 -28 -20 2 -36 -4 -49 -18 -33 -37 -43 -25
-50 63 -3 45 -5 752 -3 1571 2 1180 6 1490 16 1494 6 2 12 17 12 33 l0 29 65
0 65 0 0 179 0 180 -53 3 -52 3 3 34 c1 19 4 36 5 37 2 1 607 10 1787 24 448
5 858 12 910 15 52 2 313 5 580 6 267 1 488 3 493 6 8 5 -99 146 -163 217
l-35 38 -665 -6 c-651 -7 -667 -7 -740 13 -41 12 -142 37 -225 57 -255 61
-465 112 -580 138 -60 14 -177 42 -260 62 -128 31 -610 140 -1005 228 -144 33
-258 64 -289 81 -23 12 -31 8 -115 -60 -50 -39 -219 -167 -376 -285 -157 -117
-310 -232 -340 -255 -75 -57 -168 -115 -184 -115 -8 0 -17 -12 -20 -26 -8 -30
-32 -26 -29 5 3 20 -1 21 -110 21 -61 0 -136 -3 -165 -6 l-52 -7 0 -138 0
-139 75 0 75 0 0 -62 c0 -116 -12 -109 174 -106 l161 3 5 90 5 90 323 5 c178
3 327 3 332 0 4 -3 10 -84 13 -180 3 -113 10 -186 19 -205 11 -25 13 -334 11
-1740 -1 -940 -5 -1734 -8 -1763 -4 -32 -11 -52 -18 -49 -20 6 -73 80 -60 84
16 6 5 33 -14 33 -11 0 -14 -7 -11 -23 4 -20 1 -23 -19 -19 -26 5 -27 10 -13
48 15 39 5 59 -48 95 -42 29 -51 31 -114 27 -37 -2 -68 0 -68 5 0 6 9 25 21
44 18 28 20 43 14 96 -10 92 -13 100 -41 94 -20 -3 -24 0 -24 19 0 12 6 24 13
27 15 5 -6 93 -29 118 -8 9 -14 36 -14 63 0 27 -8 63 -20 86 -11 22 -20 46
-20 55 0 21 -28 75 -39 75 -12 0 -49 -125 -57 -187 -3 -26 -15 -72 -25 -101
-13 -35 -17 -66 -13 -91 4 -27 2 -42 -10 -54 -11 -11 -16 -34 -16 -73 0 -40
-5 -60 -16 -68 -11 -8 -18 -37 -23 -93 -4 -55 -12 -88 -24 -101 -9 -10 -17
-25 -17 -33 1 -17 29 -69 30 -54 0 6 9 -9 19 -31 11 -23 24 -43 29 -45 6 -2
12 -11 14 -19 2 -8 5 -17 8 -20 14 -14 38 -71 29 -68 -11 4 -50 66 -244 398
-95 162 -267 450 -409 683 -40 65 -78 123 -86 128 -10 6 -208 9 -535 8 -286
-1 -526 -1 -533 0 -10 1 -12 78 -10 368 l3 368 38 3 c20 2 37 8 37 14 0 6 -45
100 -100 208 -97 193 -100 201 -135 361 -20 90 -40 182 -45 204 -10 40 -78
362 -107 505 -8 41 -19 93 -24 115 -5 22 -13 60 -18 85 -31 157 -72 344 -76
348 -7 7 -16 -27 -71 -273 -7 -33 -34 -150 -59 -260 -25 -110 -55 -243 -66
-295 -11 -52 -47 -208 -79 -346 l-59 -251 -100 -201 c-56 -111 -101 -203 -101
-206 0 -3 19 -6 43 -8 l42 -3 0 -541 0 -540 -35 -70 c-20 -38 -91 -169 -158
-292 -167 -302 -171 -310 -207 -367 -50 -78 -76 -135 -69 -147 4 -7 3 -8 -4
-4 -17 11 -15 34 7 65 11 15 27 47 37 72 10 24 21 46 25 49 16 11 21 58 7 66
-40 26 -200 68 -293 77 -32 3 -92 25 -170 62 -230 108 -520 188 -604 165 -21
-5 -44 -17 -51 -25 -16 -19 -31 -19 -24 0 4 8 1 15 -6 15 -7 0 -10 6 -7 14 4
10 -7 15 -40 20 -63 8 -257 6 -318 -4 -99 -16 -170 -31 -190 -40 -11 -5 -32
-14 -47 -20 -16 -5 -28 -16 -28 -25 0 -8 -4 -15 -9 -15 -16 0 -18 -33 -3 -69
l13 -33 -30 21 c-29 21 -32 21 -62 6 -47 -25 -47 -9 0 32 40 33 42 39 36 72
-8 44 -38 78 -76 86 -16 4 -29 9 -29 12 0 3 14 21 30 40 24 27 30 43 30 79 0
25 -7 58 -15 74 -21 41 -133 124 -217 162 -15 7 -30 18 -32 25 -7 18 24 16 48
-2 24 -18 68 -19 84 -3 7 7 12 22 12 35 0 18 -6 23 -25 23 -30 0 -33 15 -5 30
20 11 28 40 10 40 -6 0 -7 18 -4 43 6 39 3 46 -20 64 -14 12 -48 26 -75 33
l-49 11 5 62 c4 48 0 74 -16 115 -12 29 -21 64 -21 77 0 36 -35 55 -101 55
-38 0 -61 5 -69 15 -7 9 -21 13 -31 10 -15 -5 -19 -1 -19 21 0 34 -45 94 -70
94 -10 0 -24 -8 -30 -17 -8 -13 -13 -14 -16 -5 -3 6 -12 12 -20 12 -8 0 -18 8
-21 18 -10 26 -57 82 -69 82 -6 0 -19 -9 -29 -20 -23 -26 -39 -26 -32 0 3 13
0 20 -9 20 -8 0 -14 5 -14 10 0 6 -7 13 -15 16 -15 6 -60 -37 -70 -68 -9 -27
-25 -22 -36 11 -8 21 -18 30 -40 33 l-29 5 0 -1819 0 -1818 12800 0 12800 0 0
655 c0 454 -3 655 -11 655 -5 0 -7 -4 -4 -10 3 -5 1 -10 -4 -10 -6 0 -11 4
-11 10 0 5 -13 2 -29 -8 -16 -9 -27 -21 -24 -26 3 -5 2 -6 -4 -3 -5 3 -16 -3
-24 -14 -29 -42 -59 -70 -59 -56 0 19 98 110 138 128 l32 14 0 3247 c0 1787
-4 3248 -8 3248 -5 0 -16 17 -26 38 -10 20 -29 54 -43 75 -25 36 -26 39 -11
70 14 29 14 37 2 66 -8 18 -14 45 -14 60 0 15 -8 38 -17 51 -18 25 -47 88 -84
185 -11 28 -26 63 -34 79 -8 18 -10 37 -5 51 6 15 1 36 -15 69 -30 62 -29 61
-55 29z m-300 -618 c0 -8 -2 -15 -4 -15 -2 0 -6 7 -10 15 -3 8 -1 15 4 15 6 0
10 -7 10 -15z m-18276 -1257 c-46 -259 -92 -489 -98 -496 -8 -7 -638 -24 -645
-16 -2 2 -2 6 0 7 2 2 157 119 344 260 187 140 353 269 369 286 17 17 33 31
36 31 4 0 1 -33 -6 -72z m256 33 c58 -12 128 -26 155 -31 28 -6 137 -26 244
-46 173 -31 342 -66 456 -94 22 -5 182 -41 355 -80 527 -119 909 -208 926
-218 7 -4 -123 -7 -289 -7 -551 0 -1670 -17 -1691 -25 -12 -4 -54 -47 -95 -94
-41 -47 -78 -86 -83 -86 -10 0 -11 6 -48 245 -17 110 -40 255 -51 321 -23 148
-23 147 -1 140 9 -3 64 -14 122 -25z m-181 -169 c1 -59 -12 -92 -36 -92 -11 0
-14 6 -9 23 4 12 9 47 12 77 3 30 8 62 11 70 9 25 22 -19 22 -78z m21 -122 c0
-32 -3 -34 -35 -31 -41 4 -44 9 -15 31 32 25 50 25 50 0z m6 -74 c6 -6 14 -32
18 -58 l6 -47 -80 -71 c-44 -38 -83 -70 -86 -70 -3 0 -3 8 1 18 3 9 15 65 25
124 10 59 21 112 25 117 7 12 76 2 91 -13z m3677 -148 c-22 -24 -91 -115 -108
-144 -9 -14 -19 -6 -69 54 -33 39 -65 73 -73 76 -7 3 -13 10 -13 15 0 10 58
16 199 19 l84 2 -20 -22z m-3623 -135 c0 -22 -4 -23 -64 -23 -72 0 -120 14
-114 32 3 7 38 40 79 74 l74 61 12 -61 c7 -34 12 -71 13 -83z m2950 134 c0 -8
-12 -24 -26 -38 -14 -13 -42 -45 -62 -71 -20 -27 -40 -48 -45 -48 -4 0 -20 15
-35 33 -15 17 -46 53 -69 78 -24 25 -43 49 -43 52 0 3 63 6 140 6 109 1 140
-2 140 -12z m284 -73 l-78 -85 -73 78 c-39 43 -72 81 -73 86 0 4 68 7 151 7
l151 0 -78 -86z m515 -4 l71 -90 -146 0 c-138 0 -145 1 -132 18 47 66 124 161
129 162 4 0 39 -40 78 -90z m-1819 73 c-1 -5 -34 -43 -73 -86 l-73 -77 -72 80
-73 79 128 4 c70 1 136 4 146 5 9 1 17 -1 17 -5z m350 4 c0 -1 -29 -34 -65
-72 -36 -39 -65 -73 -65 -77 0 -24 -36 2 -99 72 l-73 80 151 0 c83 0 151 -1
151 -3z m328 -6 c-4 -12 -140 -153 -143 -149 -1 2 -32 38 -69 81 l-67 77 141
0 c83 0 140 -4 138 -9z m-1715 -24 c-53 -68 -118 -137 -127 -137 -10 0 -112
109 -129 137 -5 8 27 12 125 12 72 1 134 4 137 6 14 14 10 2 -6 -18z m300 -59
l-83 -83 -79 80 -79 80 162 3 161 3 -82 -83z m345 21 c-29 -33 -59 -69 -67
-80 -13 -19 -41 -26 -41 -11 0 4 -30 40 -66 80 l-66 72 147 0 147 0 -54 -61z
m1179 -21 c40 -45 70 -85 68 -89 -6 -9 -272 -12 -285 -4 -9 6 128 176 140 174
3 0 37 -37 77 -81z m411 -79 c2 -5 -60 -9 -137 -9 -78 0 -141 2 -141 5 0 3 30
42 66 86 l66 80 72 -77 c39 -42 73 -81 74 -85z m280 82 l71 -79 -145 -7 c-80
-4 -148 -4 -151 -1 -6 5 136 163 148 165 3 1 38 -34 77 -78z m-2851 49 c-6 -8
-16 -19 -22 -25 -5 -5 -32 -36 -59 -68 l-48 -57 -64 82 c-35 44 -64 82 -64 82
0 1 60 1 134 1 118 0 133 -2 123 -15z m1514 -102 l40 -47 -151 -3 c-113 -2
-150 0 -148 9 2 7 34 46 72 88 l70 76 39 -38 c21 -21 57 -59 78 -85z m309 42
c40 -44 70 -83 68 -86 -3 -2 -72 -3 -153 -2 l-147 3 73 82 c41 45 77 82 80 82
4 1 39 -35 79 -79z m-681 -11 c35 -39 60 -73 56 -77 -3 -4 -72 -8 -152 -10
l-146 -4 77 86 c43 47 83 83 90 80 7 -3 41 -36 75 -75z m-1330 -48 c18 -23 31
-44 29 -46 -3 -3 -249 -8 -293 -5 -5 0 29 38 75 85 l85 86 35 -39 c19 -22 50
-58 69 -81z m310 34 l71 -85 -151 0 -151 0 63 71 c35 39 68 77 74 85 5 8 13
14 16 14 4 0 39 -38 78 -85z m409 -80 c-3 -3 -75 -4 -161 -3 l-156 3 81 84 81
83 80 -81 c45 -44 79 -83 75 -86z m271 88 c39 -43 65 -79 59 -80 -7 -1 -77 -4
-156 -6 l-143 -3 38 40 c100 108 118 126 124 126 4 0 39 -35 78 -77z m-2074
-15 l0 -33 -124 -3 c-72 -1 -128 1 -134 7 -7 7 -4 19 6 35 15 22 25 25 79 28
35 2 88 2 118 1 l55 -1 0 -34z m213 34 c13 -9 12 -38 -1 -59 -6 -9 -35 -13
-88 -13 l-79 0 0 33 c0 19 3 37 7 40 9 10 145 8 161 -1z m232 -21 c0 -17 -4
-33 -10 -36 -10 -6 -170 -18 -170 -13 -1 2 -3 20 -6 41 l-6 37 96 0 96 0 0
-29z m118 -79 c5 -16 -21 -15 -36 0 -7 7 -12 18 -12 26 0 12 3 12 22 0 12 -8
24 -20 26 -26z m120 -599 l3 -33 -80 0 c-97 0 -111 4 -103 33 8 33 20 37 102
35 l75 -3 3 -32z m-138 -155 c11 -12 20 -26 20 -31 0 -10 -69 -107 -76 -107
-2 0 -4 36 -4 80 0 73 2 80 20 80 10 0 28 -10 40 -22z m172 5 c3 -10 6 -49 7
-88 l3 -70 -27 25 c-15 14 -40 42 -57 62 l-29 38 25 25 c29 29 72 33 78 8z
m-63 -120 c28 -32 51 -62 51 -67 0 -5 -23 -40 -52 -79 l-52 -70 -32 39 c-18
21 -42 55 -53 75 l-20 36 44 61 c25 34 49 62 54 62 5 0 32 -26 60 -57z m71
-239 c0 -68 -3 -124 -7 -123 -5 0 -29 27 -56 59 l-47 59 47 70 c26 38 51 67
55 65 4 -3 8 -61 8 -130z m-169 10 c11 -21 8 -29 -22 -73 -19 -28 -37 -51 -41
-51 -10 0 -10 184 -1 194 8 8 42 -30 64 -70z m98 -101 c28 -32 51 -63 51 -69
0 -9 -73 -110 -100 -137 -10 -11 -100 106 -100 131 0 20 77 132 91 132 4 0 30
-26 58 -57z m71 -233 c0 -71 -4 -130 -8 -130 -5 0 -30 27 -55 60 l-47 60 47
70 c27 38 51 69 56 70 4 0 7 -58 7 -130z m-191 34 c17 -25 31 -48 31 -51 0 -4
-17 -31 -37 -61 l-38 -55 -3 93 c-3 87 1 120 12 120 3 0 18 -20 35 -46z m149
-168 c12 -16 22 -32 22 -36 0 -4 -23 -37 -50 -74 -43 -56 -54 -65 -69 -56 -25
13 -81 102 -81 128 0 12 21 49 46 81 l46 59 32 -36 c18 -21 42 -50 54 -66z
m17787 34 c-3 -5 -17 -10 -31 -10 -13 0 -24 5 -24 10 0 6 14 10 31 10 17 0 28
-4 24 -10z m75 -5 c0 -8 -4 -15 -10 -15 -5 0 -10 7 -10 15 0 8 5 15 10 15 6 0
10 -7 10 -15z m-17820 -241 c0 -74 -3 -134 -7 -134 -5 0 -26 25 -48 56 -22 31
-44 62 -49 68 -5 8 3 28 23 56 18 25 40 57 49 72 9 14 20 24 24 22 5 -3 8 -66
8 -140z m-170 11 c10 -19 7 -29 -22 -73 -18 -28 -36 -51 -40 -51 -10 -1 -10
183 -1 193 8 8 42 -30 63 -69z m100 -110 l52 -65 -36 -53 c-59 -83 -64 -89
-76 -82 -26 16 -98 128 -92 144 9 25 82 121 91 121 5 0 33 -29 61 -65z m70
-236 c0 -116 -2 -130 -15 -119 -21 18 -85 106 -85 117 0 15 81 133 91 133 5 0
9 -59 9 -131z m-192 42 c18 -22 32 -45 32 -52 0 -11 -68 -109 -76 -109 -2 0
-4 45 -4 100 0 55 4 100 8 100 5 0 23 -18 40 -39z m121 -136 c28 -35 51 -68
51 -72 0 -5 -20 -34 -45 -67 -24 -32 -46 -63 -49 -70 -5 -12 -35 19 -86 90
l-29 41 30 49 c27 43 68 94 75 94 1 0 25 -29 53 -65z m66 -374 c-4 -3 -11 2
-16 11 -5 9 -25 38 -44 63 -19 25 -35 51 -35 59 0 8 21 42 48 77 l47 63 3
-133 c1 -74 0 -136 -3 -140z m-164 143 c11 -21 8 -30 -27 -81 l-39 -58 -3 94
c-4 120 2 136 33 97 13 -16 29 -40 36 -52z m107 -110 l53 -65 -52 -72 c-29
-40 -54 -74 -56 -77 -5 -6 -51 48 -84 99 -24 36 -26 47 -17 65 22 41 82 116
93 115 5 0 34 -30 63 -65z m62 -244 c0 -71 -2 -130 -4 -130 -6 0 -96 118 -96
126 0 13 82 134 91 134 5 0 9 -58 9 -130z m-187 48 c15 -20 27 -44 27 -52 0
-18 -61 -116 -72 -116 -9 0 -10 165 -2 198 4 13 10 20 13 15 4 -4 19 -25 34
-45z m164 -194 c13 -20 10 -27 -38 -90 -28 -38 -55 -70 -59 -72 -12 -5 -100
123 -100 144 0 11 21 46 47 78 l46 60 45 -50 c25 -27 51 -59 59 -70z m1703
-44 c0 -5 -18 -10 -40 -10 -22 0 -40 5 -40 10 0 6 18 10 40 10 22 0 40 -4 40
-10z m143 3 c-13 -2 -33 -2 -45 0 -13 2 -3 4 22 4 25 0 35 -2 23 -4z m-1823
-163 c0 -71 -2 -130 -4 -130 -10 0 -96 119 -96 132 0 16 80 128 92 128 4 0 8
-58 8 -130z m-189 44 l32 -47 -24 -44 c-13 -24 -32 -51 -41 -60 -17 -15 -18
-11 -18 84 0 86 4 113 16 113 2 0 17 -21 35 -46z m123 -143 c34 -44 47 -67 40
-76 -5 -7 -28 -38 -52 -69 l-43 -57 -45 53 c-63 75 -64 86 -13 158 23 33 47
59 53 57 6 -2 33 -32 60 -66z m7624 42 c-15 -2 -42 -2 -60 0 -18 2 -6 4 27 4
33 0 48 -2 33 -4z m427 -31 c-3 -3 -11 0 -18 7 -9 10 -8 11 6 5 10 -3 15 -9
12 -12z m9545 -42 c0 -5 -4 -10 -10 -10 -5 0 -10 5 -10 10 0 6 5 10 10 10 6 0
10 -4 10 -10z m-9531 -80 c0 -10 -3 -8 -9 5 -12 27 -12 43 0 25 5 -8 9 -22 9
-30z m-112 -147 c15 -12 15 -13 -5 -13 -21 0 -22 3 -20 93 l2 92 3 -80 c3 -60
8 -83 20 -92z m-7887 27 c0 -71 -3 -130 -7 -129 -5 0 -29 29 -54 64 l-47 63
46 66 c25 36 49 66 54 66 4 0 8 -58 8 -130z m15651 91 c-6 -11 -20 -25 -31
-31 -17 -9 -20 -8 -20 10 0 11 6 20 14 20 7 0 19 7 26 15 17 21 24 12 11 -14z
m-7651 -61 c0 -39 -4 -70 -10 -70 -6 0 -8 23 -5 58 2 31 4 63 5 70 0 6 2 12 5
12 3 0 5 -31 5 -70z m-8185 -5 l26 -46 -38 -52 -38 -52 -3 80 c-3 85 3 129 17
120 5 -3 21 -25 36 -50z m17011 24 c30 -18 34 -25 34 -65 0 -32 -4 -44 -15
-44 -8 0 -12 6 -9 14 6 16 -12 56 -30 68 -6 4 -28 8 -48 8 -20 0 -40 5 -43 10
-21 34 60 41 111 9z m584 5 c0 -8 -5 -12 -10 -9 -6 4 -8 11 -5 16 9 14 15 11
15 -7z m-1320 -20 c0 -2 -24 -4 -52 -3 -38 1 -46 3 -28 8 24 7 80 3 80 -5z
m98 -89 c-3 -3 -9 2 -12 12 -6 14 -5 15 5 6 7 -7 10 -15 7 -18z m-16304 9 c20
-8 86 -97 86 -116 0 -22 -89 -140 -101 -133 -5 4 -28 31 -50 62 -47 63 -46 74
6 146 38 51 36 50 59 41z m15986 -30 c0 -19 -13 -24 -28 -12 -8 7 -35 15 -61
19 -41 6 -38 7 21 6 41 -1 68 -6 68 -13z m357 10 c-3 -3 -12 -4 -19 -1 -8 3
-5 6 6 6 11 1 17 -2 13 -5z m-1263 -57 c21 -31 23 -39 11 -43 -8 -4 -15 -12
-15 -20 0 -8 -10 -15 -22 -15 l-23 -2 23 -4 c27 -5 29 -23 2 -23 -11 0 -20 -4
-20 -9 0 -5 -14 -11 -31 -15 -27 -5 -29 -7 -16 -21 19 -19 28 -19 21 -1 -7 18
82 34 98 18 15 -15 1 -32 -27 -32 -42 0 -55 -11 -55 -44 0 -50 18 -98 45 -121
14 -11 30 -40 37 -67 12 -46 11 -49 -16 -77 -27 -28 -28 -34 -24 -100 2 -41 0
-65 -5 -58 -5 7 -6 2 -3 -14 4 -19 1 -26 -10 -26 -8 0 -51 60 -100 141 -165
270 -258 408 -281 417 -28 10 -743 12 -759 1 -6 -4 -20 -25 -31 -47 -11 -22
-37 -67 -57 -100 -130 -209 -156 -242 -156 -197 0 28 10 52 22 52 5 0 16 7 24
15 10 10 11 15 4 15 -8 0 -10 10 -8 24 6 32 1 38 -46 60 -36 17 -38 20 -22 32
16 11 18 25 14 103 -2 54 -1 86 5 78 7 -9 10 -9 14 1 8 19 23 3 23 -25 0 -23
2 -24 17 -12 15 12 16 12 10 -3 -5 -13 -1 -18 13 -18 14 0 20 7 20 21 0 14 5
19 18 17 9 -2 16 -11 14 -20 -4 -25 16 -31 28 -8 13 25 36 26 49 3 10 -17 10
-17 11 -1 0 10 11 20 25 24 14 3 22 10 19 15 -4 8 604 17 714 11 19 -1 43 -12
59 -26 20 -19 30 -22 40 -14 10 8 13 6 13 -6 0 -20 36 -21 44 -1 8 22 23 18
29 -7 4 -12 9 -19 13 -15 3 3 14 -4 24 -16 15 -18 20 -19 34 -8 10 8 14 21 11
32 -4 11 -2 19 4 19 6 0 11 -4 11 -10 0 -17 25 -11 38 10 6 11 18 17 26 14 8
-3 23 -1 33 5 17 10 17 10 1 11 -10 0 -18 5 -18 10 0 6 9 10 20 10 11 0 19 5
18 12 -2 7 3 13 10 14 6 1 15 2 18 3 4 0 2 7 -4 14 -9 11 -16 40 -13 61 1 12
4 9 35 -37z m-54 13 c0 -5 -2 -10 -4 -10 -3 0 -8 5 -11 10 -3 6 -1 10 4 10 6
0 11 -4 11 -10z m1884 -21 c-3 -5 2 -12 10 -15 21 -8 20 -34 -1 -34 -24 0 -88
51 -74 60 16 9 72 0 65 -11z m-1119 -19 c-10 -11 -21 -18 -23 -15 -3 3 3 12
14 20 27 20 30 18 9 -5z m-1328 -36 c-3 -3 -12 -4 -19 -1 -8 3 -5 6 6 6 11 1
17 -2 13 -5z m2013 -36 c0 -14 -19 1 -31 25 -12 22 -12 22 10 3 11 -11 21 -23
21 -28z m-16370 -23 c0 -43 -1 -45 -30 -45 -16 0 -30 2 -30 5 0 7 52 85 56 85
2 0 4 -20 4 -45z m16401 38 c0 -5 2 -18 3 -30 2 -18 0 -20 -11 -11 -11 9 -12
13 -1 19 10 7 10 9 1 9 -7 0 -13 5 -13 10 0 11 20 14 21 3z m-1781 -13 c0 -5
-2 -10 -4 -10 -3 0 -8 5 -11 10 -3 6 -1 10 4 10 6 0 11 -4 11 -10z m-13400
-20 c0 -17 -3 -19 -19 -11 -10 6 -35 10 -55 9 -38 -1 -42 -10 -27 -69 5 -21
12 -25 44 -26 30 0 37 3 35 16 -5 30 17 23 26 -9 13 -44 1 -51 -69 -42 l-60 7
-3 73 -4 72 66 0 c60 0 66 -2 66 -20z m318 -3 c3 -15 0 -16 -23 -7 -14 5 -40
10 -56 10 -27 0 -29 -3 -29 -35 0 -19 4 -35 9 -35 5 0 11 -9 13 -20 3 -19 5
-19 32 -5 15 8 34 15 41 15 13 0 28 -49 16 -51 -22 -5 -80 -7 -98 -3 -21 4
-23 10 -23 80 l0 75 57 -3 c46 -2 59 -7 61 -21z m344 -49 c3 -40 4 -74 3 -76
-6 -8 -56 -12 -97 -6 l-48 6 0 67 c0 37 3 71 7 74 3 4 34 7 69 7 l62 0 4 -72z
m-2058 -14 l26 -46 -32 -49 c-17 -27 -35 -49 -40 -49 -4 0 -8 42 -8 93 0 125
8 133 54 51z m-4777 40 c-3 -3 -12 -4 -19 -1 -8 3 -5 6 6 6 11 1 17 -2 13 -5z
m-67 -14 c-20 -13 -33 -13 -25 0 3 6 14 10 23 10 15 0 15 -2 2 -10z m21500
-22 c0 -6 -7 -5 -15 2 -8 7 -15 17 -15 22 0 6 7 5 15 -2 8 -7 15 -17 15 -22z
m665 -8 c-5 -8 -11 -8 -17 -2 -6 6 -7 16 -3 22 5 8 11 8 17 2 6 -6 7 -16 3
-22z m-21745 -70 c0 -5 -5 -10 -11 -10 -5 0 -7 5 -4 10 3 6 8 10 11 10 2 0 4
-4 4 -10z m12497 4 c-3 -3 -12 -4 -19 -1 -8 3 -5 6 6 6 11 1 17 -2 13 -5z
m100 0 c-3 -3 -12 -4 -19 -1 -8 3 -5 6 6 6 11 1 17 -2 13 -5z m9073 -29 c0 -8
-2 -15 -4 -15 -2 0 -6 7 -10 15 -3 8 -1 15 4 15 6 0 10 -7 10 -15z m-21544
-28 c5 -4 0 -5 -11 -1 -17 6 -17 4 5 -22 l25 -29 -30 25 c-16 14 -33 27 -37
30 -5 3 3 6 16 5 13 0 28 -4 32 -8z m21034 -17 c6 -11 8 -20 6 -20 -3 0 -10 9
-16 20 -6 11 -8 20 -6 20 3 0 10 -9 16 -20z m535 10 c3 -5 1 -10 -4 -10 -6 0
-11 5 -11 10 0 6 2 10 4 10 3 0 8 -4 11 -10z m-22805 -10 c0 -5 -4 -10 -9 -10
-6 0 -13 5 -16 10 -3 6 1 10 9 10 9 0 16 -4 16 -10z m22187 -16 c-3 -3 -12 -4
-19 -1 -8 3 -5 6 6 6 11 1 17 -2 13 -5z m-10896 -54 c11 -41 10 -208 -1 -215
-6 -4 -33 -4 -60 0 l-50 7 0 118 0 119 52 -3 c46 -2 53 -5 59 -26z m11469 0
c-15 -9 -4 -30 16 -30 8 0 14 -10 14 -25 0 -14 -3 -25 -6 -25 -11 0 -33 28
-27 34 4 3 1 6 -6 6 -7 0 -10 4 -6 9 3 5 1 12 -4 16 -6 3 -8 12 -5 20 4 8 10
12 15 9 5 -3 9 1 10 8 0 10 2 10 6 -1 3 -7 0 -17 -7 -21z m-11790 -101 l0
-122 -51 6 c-29 4 -53 8 -55 9 -10 11 -14 84 -9 151 l7 77 54 0 54 0 0 -121z
m2747 99 c-3 -8 -6 -5 -6 6 -1 11 2 17 5 13 3 -3 4 -12 1 -19z m8611 5 c-10
-2 -18 -9 -18 -14 0 -6 10 -7 23 -3 l22 6 -24 -26 c-31 -34 -41 -33 -41 3 0
29 11 40 40 39 10 0 9 -2 -2 -5z m348 -2 c-4 -5 0 -12 6 -14 8 -4 9 -6 2 -6
-6 -1 -17 6 -24 14 -10 12 -9 15 4 15 10 0 15 -4 12 -9z m111 -13 c-3 -8 -6
-5 -6 6 -1 11 2 17 5 13 3 -3 4 -12 1 -19z m-22677 2 c0 -5 -5 -10 -11 -10 -5
0 -7 5 -4 10 3 6 8 10 11 10 2 0 4 -4 4 -10z m22324 -4 c-5 -14 50 -31 67 -20
5 3 8 0 7 -8 -2 -7 4 -13 12 -13 8 0 14 6 12 14 -3 12 0 12 12 2 10 -8 16 -9
21 -1 3 5 14 10 23 10 12 0 10 -4 -8 -17 -14 -9 -31 -26 -39 -36 -12 -17 -16
-18 -25 -6 -6 8 -34 26 -62 40 -44 22 -49 27 -35 37 21 14 21 14 15 -2z m286
-6 c0 -5 -4 -10 -10 -10 -5 0 -10 5 -10 10 0 6 5 10 10 10 6 0 10 -4 10 -10z
m-9000 -80 l0 -80 -42 1 c-27 1 -34 3 -18 6 37 7 50 31 50 95 0 32 2 58 5 58
3 0 5 -36 5 -80z m7330 60 c0 -5 -7 -10 -16 -10 -8 0 -12 5 -9 10 3 6 10 10
16 10 5 0 9 -4 9 -10z m-15473 -36 c-3 -3 -12 -4 -19 -1 -8 3 -5 6 6 6 11 1
17 -2 13 -5z m8036 -96 c8 -5 5 -8 -9 -8 -19 0 -21 6 -22 48 l0 47 9 -40 c5
-21 15 -43 22 -47z m-13573 48 c0 -2 -8 -10 -17 -17 -16 -13 -17 -12 -4 4 13
16 21 21 21 13z m6890 -23 c0 -13 -3 -14 -12 -5 -16 16 -105 16 -111 0 -3 -8
-6 -6 -6 5 -1 14 8 17 64 17 55 0 65 -3 65 -17z m258 10 c-47 -4 -48 -5 -48
-37 0 -77 42 -125 69 -78 9 15 10 14 11 -7 0 -16 4 -21 15 -17 10 4 15 -1 15
-14 0 -25 -45 -28 -58 -4 -8 14 -10 14 -21 0 -8 -9 -20 -16 -27 -16 -11 0 -14
20 -14 90 l0 90 53 -2 52 -2 -47 -3z m285 -69 c-3 -51 -1 -74 6 -69 6 3 11 -2
11 -11 0 -14 3 -15 12 -6 7 7 20 12 30 12 10 0 23 10 28 23 5 13 9 16 10 7 1
-10 4 -9 10 5 7 15 9 10 9 -22 l1 -43 -70 0 -70 0 0 90 c0 69 3 90 14 90 10 0
12 -17 9 -76z m116 29 c-2 -33 -3 -39 -6 -19 -5 33 -21 52 -49 59 -10 2 -2 5
19 6 l37 1 -1 -47z m-342 5 c-3 -7 -5 -2 -5 12 0 14 2 19 5 13 2 -7 2 -19 0
-25z m5953 12 c0 -5 -2 -10 -4 -10 -3 0 -8 5 -11 10 -3 6 -1 10 4 10 6 0 11
-4 11 -10z m120 -5 c0 -11 -11 -15 -42 -14 l-43 0 35 13 c47 18 50 18 50 1z
m7587 -42 c-3 -10 -5 -4 -5 12 0 17 2 24 5 18 2 -7 2 -21 0 -30z m-14079 -71
c15 -15 21 -16 42 -5 33 17 64 12 68 -9 3 -16 -5 -18 -67 -18 l-71 0 2 58 c1
36 3 45 5 24 3 -18 12 -41 21 -50z m8402 58 c-8 -5 -19 -10 -25 -10 -5 0 -3 5
5 10 8 5 20 10 25 10 6 0 3 -5 -5 -10z m-10460 -10 c33 0 41 -3 30 -10 -8 -5
-25 -10 -37 -10 -13 0 -23 -4 -23 -10 0 -5 -4 -10 -10 -10 -5 0 -10 6 -10 14
0 9 -7 12 -20 9 -14 -4 -20 0 -20 12 0 13 6 16 23 11 12 -3 42 -6 67 -6z
m-2959 -10 c5 0 8 -10 8 -22 -1 -17 -2 -19 -6 -5 -2 9 -11 17 -18 17 -8 0 -17
5 -21 12 -5 8 -2 9 10 5 10 -4 22 -7 27 -7z m13349 -20 c0 -5 -4 -10 -10 -10
-5 0 -10 5 -10 10 0 6 5 10 10 10 6 0 10 -4 10 -10z m-10463 -22 c-3 -8 -6 -5
-6 6 -1 11 2 17 5 13 3 -3 4 -12 1 -19z m393 -23 c0 -17 -36 -39 -50 -30 -14
9 11 33 48 44 1 1 2 -6 2 -14z m10080 11 c0 -3 -4 -8 -10 -11 -5 -3 -10 -1
-10 4 0 6 5 11 10 11 6 0 10 -2 10 -4z m5460 0 c0 -2 -7 -9 -15 -16 -12 -10
-15 -10 -15 4 0 9 7 16 15 16 8 0 15 -2 15 -4z m-5417 -13 c-7 -2 -19 -2 -25
0 -7 3 -2 5 12 5 14 0 19 -2 13 -5z m113 -40 c-10 -10 -19 5 -10 18 6 11 8 11
12 0 2 -7 1 -15 -2 -18z m-13721 7 c-3 -5 5 -22 20 -37 31 -34 41 -61 26 -76
-6 -6 -11 -24 -11 -40 0 -15 -3 -26 -7 -24 -5 3 -9 -11 -10 -31 -1 -19 -8 -39
-15 -43 -34 -22 -37 -1 -8 66 22 50 26 105 10 134 -5 10 -24 22 -42 26 -26 6
-29 9 -13 12 11 3 24 9 30 14 12 12 28 11 20 -1z m3133 -2 c1 -7 6 -49 11 -93
6 -44 10 -83 10 -87 1 -14 28 -9 41 7 21 25 40 18 40 -15 0 -29 13 -40 25 -21
3 6 19 8 35 6 29 -3 30 -2 30 38 0 52 15 80 30 57 5 -8 9 -22 7 -30 -2 -8 7
-32 20 -52 29 -47 29 -54 0 -35 -17 11 -34 13 -63 7 -59 -11 -74 -20 -80 -46
-4 -15 -14 -24 -28 -25 -17 -1 -18 -2 -3 -6 40 -10 8 -28 -55 -31 -63 -3 -66
-2 -70 23 -3 14 -1 25 3 25 5 0 9 5 9 11 0 5 -5 7 -10 4 -7 -4 -10 6 -8 29 1
24 7 36 17 36 11 0 10 4 -5 15 -19 14 -18 15 6 36 17 14 21 22 13 26 -15 6
-18 83 -3 83 6 0 10 8 10 18 0 10 3 22 7 25 9 9 9 9 11 -5z m279 -29 c-6 -10
-15 -19 -18 -19 -4 0 -10 -11 -13 -25 -9 -37 -27 -20 -19 18 6 33 21 50 35 41
4 -3 5 3 1 13 -6 16 -5 16 10 5 13 -11 14 -17 4 -33z m13887 25 c3 -8 2 -12
-4 -9 -6 3 -10 10 -10 16 0 14 7 11 14 -7z m1706 -6 c0 -5 -4 -7 -9 -3 -5 3
-12 -3 -14 -12 -3 -11 -5 -8 -6 9 -1 20 3 26 14 22 8 -4 15 -10 15 -16z m-993
-151 c-2 -23 -3 -1 -3 48 0 50 1 68 3 42 2 -26 2 -67 0 -90z m633 129 c0 -11
-19 -15 -25 -6 -3 5 1 10 9 10 9 0 16 -2 16 -4z m664 -10 c-3 -8 -1 -31 5 -52
14 -50 8 -53 -17 -9 -19 31 -26 35 -61 35 -44 0 -64 -21 -75 -82 -6 -31 -12
-39 -41 -48 -41 -14 -55 -35 -48 -73 l5 -27 -61 2 c-46 2 -61 7 -62 18 -1 8
-3 31 -4 50 -2 19 3 45 11 57 8 12 14 30 15 40 1 13 3 11 9 -7 7 -18 8 -11 4
25 -3 34 -1 44 5 30 8 -19 9 -18 13 5 4 24 5 24 20 -10 14 -29 17 -31 17 -12
1 33 21 27 21 -7 0 -16 6 -31 15 -35 8 -3 15 -1 15 4 0 6 -4 10 -10 10 -5 0
-9 10 -9 23 1 16 2 18 6 5 5 -22 23 -24 23 -3 0 8 5 15 10 15 13 0 13 -6 -2
-29 -13 -21 -4 -56 13 -45 8 5 8 9 -1 14 -7 4 -9 13 -5 20 6 9 9 9 16 -1 6
-10 9 -8 9 8 0 11 13 32 29 46 17 14 28 27 25 30 -6 5 32 1 67 -8 19 -5 28 -2
32 9 4 9 9 16 11 16 3 0 3 -6 0 -14z m-19095 -58 c1 -15 -2 -29 -6 -31 -5 -3
-9 18 -10 46 -1 36 1 46 7 32 5 -11 9 -32 9 -47z m3108 15 c-3 -10 -5 -2 -5
17 0 19 2 27 5 18 2 -10 2 -26 0 -35z m15213 38 c0 -6 -4 -13 -10 -16 -5 -3
-10 1 -10 9 0 9 5 16 10 16 6 0 10 -4 10 -9z m-18640 -5 c0 -11 -19 -15 -25
-6 -3 5 1 10 9 10 9 0 16 -2 16 -4z m4700 -16 c0 -5 -7 -10 -16 -10 -8 0 -12
5 -9 10 3 6 10 10 16 10 5 0 9 -4 9 -10z m35 0 c-3 -5 -10 -10 -16 -10 -5 0
-9 5 -9 10 0 6 7 10 16 10 8 0 12 -4 9 -10z m14332 -37 c-3 -10 -5 -2 -5 17 0
19 2 27 5 18 2 -10 2 -26 0 -35z m1993 27 c0 -5 -7 -10 -16 -10 -8 0 -12 5 -9
10 3 6 10 10 16 10 5 0 9 -4 9 -10z m-16415 -10 c-3 -5 -11 -10 -16 -10 -6 0
-7 5 -4 10 3 6 11 10 16 10 6 0 7 -4 4 -10z m13988 -65 c4 -34 3 -42 -3 -25
-8 25 -13 87 -6 79 2 -2 6 -26 9 -54z m1667 2 c0 -31 -3 -38 -10 -27 -13 20
-13 83 0 75 6 -3 10 -25 10 -48z m-2782 3 c6 0 13 -3 16 -8 2 -4 -13 -6 -35
-4 -22 2 -39 9 -39 16 0 22 13 27 30 11 9 -8 22 -15 28 -15z m-8070 14 c21 -6
22 -11 22 -121 l0 -114 -57 3 -58 3 1 108 c0 83 3 111 15 118 16 10 44 11 77
3z m350 -116 l3 -118 -61 0 -60 0 0 120 0 121 58 -3 57 -3 3 -117z m8440 60
c14 -16 14 -18 -1 -18 -10 0 -17 7 -17 16 0 8 -5 12 -10 9 -8 -5 -7 -11 1 -21
9 -11 8 -14 -8 -14 -23 0 -86 -21 -80 -26 2 -2 17 0 33 5 66 21 92 21 97 1 4
-14 0 -20 -12 -20 -10 0 -43 -8 -74 -19 l-57 -18 0 44 c0 27 4 42 10 38 6 -3
10 -2 10 4 0 6 12 9 28 7 15 -2 21 -1 15 1 -19 7 -16 21 6 28 11 3 23 13 27
23 6 15 8 15 12 -3 2 -11 11 -28 20 -37z m-17931 20 c-3 -8 -6 -5 -6 6 -1 11
2 17 5 13 3 -3 4 -12 1 -19z m17840 0 c-3 -8 -6 -5 -6 6 -1 11 2 17 5 13 3 -3
4 -12 1 -19z m-13359 -13 c-3 -3 -9 2 -12 12 -6 14 -5 15 5 6 7 -7 10 -15 7
-18z m6935 8 c-7 -2 -19 -2 -25 0 -7 3 -2 5 12 5 14 0 19 -2 13 -5z m60 0 c-7
-2 -21 -2 -30 0 -10 3 -4 5 12 5 17 0 24 -2 18 -5z m330 -1 c-7 -4 -16 -19
-22 -32 -9 -22 -10 -23 -10 -4 -1 21 16 44 34 44 6 0 5 -4 -2 -8z m47 4 c0
-11 -19 -15 -25 -6 -3 5 1 10 9 10 9 0 16 -2 16 -4z m4940 -15 c0 -5 -7 -11
-14 -14 -10 -4 -13 -1 -9 9 6 15 23 19 23 5z m469 -48 c7 -33 6 -45 -5 -54
-12 -10 -14 -1 -13 52 1 68 3 68 18 2z m2611 -43 c2 -109 2 -104 -14 -91 -9 8
-13 30 -11 74 2 34 3 75 4 92 1 18 5 25 10 20 6 -6 10 -48 11 -95z m-7961 -32
c1 -56 -2 -99 -5 -96 -10 10 -15 210 -5 204 5 -3 10 -52 10 -108z m6424 72 c3
-13 0 -20 -9 -20 -8 0 -14 10 -14 26 0 28 15 25 23 -6z m-13813 -29 c0 -9 3
-27 7 -41 3 -14 3 -22 -1 -18 -4 3 -11 21 -16 40 -4 18 -11 42 -15 53 -7 20
-6 20 9 1 9 -11 16 -27 16 -35z m13870 29 c0 -5 -7 -7 -15 -4 -8 4 -15 8 -15
10 0 2 7 4 15 4 8 0 15 -4 15 -10z m-12717 -14 c3 -8 -1 -17 -9 -20 -9 -3 -12
-11 -9 -17 12 -19 14 -110 3 -107 -14 5 -20 62 -13 116 6 42 18 54 28 28z
m106 -53 c-1 -48 -3 -61 -9 -43 -4 14 -5 38 -2 54 4 23 2 27 -9 21 -8 -5 -11
-5 -7 0 4 4 3 14 -3 22 -9 10 -7 13 10 13 19 0 21 -5 20 -67z m-5782 35 c-3
-8 -6 -5 -6 6 -1 11 2 17 5 13 3 -3 4 -12 1 -19z m19821 -3 c18 -38 15 -41
-13 -15 -28 26 -32 40 -12 40 8 0 19 -11 25 -25z m292 6 c0 -19 -17 -38 -25
-29 -7 7 7 48 16 48 5 0 9 -9 9 -19z m-20284 -13 c-1 -13 -7 -22 -12 -20 -12
3 -12 25 1 34 15 11 15 10 11 -14z m7891 -15 c-3 -10 -5 -4 -5 12 0 17 2 24 5
18 2 -7 2 -21 0 -30z m-7757 17 c-11 -7 -11 -10 -2 -10 7 0 10 -5 6 -11 -5 -8
1 -10 20 -7 18 4 26 1 26 -9 0 -10 -6 -13 -16 -9 -9 3 -26 6 -38 6 -18 0 -23
5 -21 23 3 28 2 27 23 27 14 0 15 -2 2 -10z m5381 -86 c5 -6 7 -19 3 -28 -4
-10 -1 -16 9 -16 9 0 23 -3 33 -7 13 -5 16 -3 11 10 -8 21 9 22 29 3 21 -22
17 -26 -23 -26 -80 0 -83 4 -81 84 1 45 3 57 5 31 3 -22 9 -45 14 -51z m15401
24 c-7 -7 -12 -8 -12 -2 0 14 12 26 19 19 2 -3 -1 -11 -7 -17z m-16244 -25
c-7 -15 -22 -29 -33 -32 -17 -3 -16 1 8 22 15 15 27 32 27 38 0 7 3 10 6 6 3
-3 0 -18 -8 -34z m12802 -35 c0 -33 -18 -19 -22 18 -4 32 -3 34 9 18 7 -10 13
-26 13 -36z m-12640 -8 c0 -5 -7 -10 -16 -10 -8 0 -12 5 -9 10 3 6 10 10 16
10 5 0 9 -4 9 -10z m1120 -6 c0 -8 -5 -12 -10 -9 -6 4 -8 11 -5 16 9 14 15 11
15 -7z m11917 10 c-3 -3 -12 -4 -19 -1 -8 3 -5 6 6 6 11 1 17 -2 13 -5z m608
-4 c3 -6 -1 -7 -9 -4 -18 7 -21 14 -7 14 6 0 13 -4 16 -10z m-12625 -10 c-19
-13 -30 -13 -30 0 0 6 10 10 23 10 18 0 19 -2 7 -10z m57 4 c-3 -3 -12 -4 -19
-1 -8 3 -5 6 6 6 11 1 17 -2 13 -5z m12028 -13 c10 -17 -12 -21 -25 -6 -10 12
-10 15 3 15 9 0 18 -4 22 -9z m-5855 -26 c0 -16 -6 -25 -16 -25 -13 0 -14 3
-4 15 6 8 9 19 5 25 -3 5 -1 10 4 10 6 0 11 -11 11 -25z m-123 -17 c-3 -7 -5
-2 -5 12 0 14 2 19 5 13 2 -7 2 -19 0 -25z m-400 0 c-3 -8 -6 -5 -6 6 -1 11 2
17 5 13 3 -3 4 -12 1 -19z m116 -5 c-7 -2 -19 -2 -25 0 -7 3 -2 5 12 5 14 0
19 -2 13 -5z m-3765 -50 c16 -16 16 -16 -1 -10 -10 4 -23 7 -28 7 -5 0 -9 5
-9 10 0 15 20 12 38 -7z m107 7 c3 -5 1 -10 -4 -10 -6 0 -11 5 -11 10 0 6 2
10 4 10 3 0 8 -4 11 -10z m-30 -10 c3 -5 -1 -10 -10 -10 -9 0 -13 5 -10 10 3
6 8 10 10 10 2 0 7 -4 10 -10z m10605 -5 c7 -8 8 -15 2 -15 -5 0 -15 7 -22 15
-7 8 -8 15 -2 15 5 0 15 -7 22 -15z m-1929 -12 c13 -16 12 -17 -3 -4 -10 7
-18 15 -18 17 0 8 8 3 21 -13z"/>
<path d="M21810 2310 c0 -5 6 -10 14 -10 8 0 18 5 21 10 3 6 -3 10 -14 10 -12
0 -21 -4 -21 -10z"/>
<path d="M20545 2280 c3 -5 8 -10 11 -10 2 0 4 5 4 10 0 6 -5 10 -11 10 -5 0
-7 -4 -4 -10z"/>
<path d="M8658 2313 c-3 -10 -1 -32 4 -50 6 -24 12 -30 27 -26 13 3 17 11 13
26 -4 15 -2 19 10 14 12 -4 14 -1 10 15 -3 11 1 24 9 29 9 6 0 9 -27 9 -31 0
-43 -4 -46 -17z"/>
<path d="M12070 2046 c0 -9 5 -16 10 -16 6 0 10 4 10 9 0 6 -4 13 -10 16 -5 3
-10 -1 -10 -9z"/>
<path d="M6102 1570 c0 -19 2 -27 5 -17 2 9 2 25 0 35 -3 9 -5 1 -5 -18z"/>
<path d="M5940 1510 c0 -5 9 -10 20 -10 11 0 20 5 20 10 0 6 -9 10 -20 10 -11
0 -20 -4 -20 -10z"/>
<path d="M25572 7918 c5 -32 28 -35 28 -4 0 17 -5 26 -16 26 -10 0 -14 -7 -12
-22z"/>
<path d="M14910 7466 l0 -323 -70 -6 c-39 -3 -74 -8 -79 -11 -5 -4 -10 -81
-11 -173 0 -92 -2 -168 -4 -170 -1 -2 -102 -6 -224 -10 l-222 -6 1 -1246 c1
-685 5 -1453 8 -1706 6 -405 7 -428 10 -190 3 331 8 492 16 506 4 5 1 17 -6
25 -10 12 -9 16 9 20 11 3 23 17 27 31 4 19 11 24 25 20 11 -3 23 -1 26 4 10
18 24 9 24 -16 0 -16 6 -25 15 -25 19 0 19 29 0 54 -19 25 -19 46 0 46 8 0 14
-3 14 -7 -5 -29 3 -41 21 -36 27 7 112 -6 105 -17 -5 -9 30 -7 88 5 25 5 37 4
37 -4 0 -6 -7 -11 -15 -11 -16 0 -20 -12 -8 -23 3 -4 21 4 39 18 41 32 53 31
81 -2 l23 -28 24 29 c16 19 30 27 41 23 9 -4 14 -11 11 -16 -8 -12 21 -34 34
-26 5 3 10 1 10 -4 0 -6 18 -11 40 -11 22 0 40 -4 40 -10 0 -5 18 -10 39 -10
29 0 41 5 45 18 3 9 4 5 2 -10 -2 -16 2 -32 8 -37 16 -13 40 3 33 21 -3 8 -1
21 4 29 7 11 9 9 9 -8 0 -13 0 -26 -1 -29 -1 -13 26 -24 56 -23 28 1 28 2 6 8
-19 5 -21 8 -10 18 8 6 28 13 44 15 17 3 24 3 17 1 -21 -7 18 -32 50 -33 32 0
58 9 58 21 0 14 -38 11 -43 -3 -4 -10 -7 -10 -18 0 -11 10 -10 12 4 12 9 0 17
5 17 10 0 6 -7 10 -15 10 -8 0 -15 5 -15 10 0 6 7 10 15 10 8 0 15 -4 15 -10
0 -5 18 -10 40 -10 22 0 40 -4 40 -10 0 -5 11 -10 24 -10 16 0 26 7 31 23 7
21 7 21 12 2 3 -11 9 -24 13 -30 4 -5 8 -55 8 -111 0 -64 6 -118 15 -146 9
-25 13 -55 10 -67 -3 -11 -1 -21 5 -21 14 0 18 398 21 1816 1 1049 0 1152 -15
1158 -8 3 -114 6 -235 6 l-219 0 0 175 0 175 -79 0 c-78 0 -79 0 -83 28 -2 15
-3 161 -3 324 0 277 -1 298 -17 298 -17 0 -18 -22 -18 -324z m-53 -3208 c-2
-13 -4 -3 -4 22 0 25 2 35 4 23 2 -13 2 -33 0 -45z m-457 42 c0 -5 -4 -10 -9
-10 -6 0 -13 5 -16 10 -3 6 1 10 9 10 9 0 16 -4 16 -10z m233 -7 c-7 -2 -19
-2 -25 0 -7 3 -2 5 12 5 14 0 19 -2 13 -5z m7 -28 c0 -16 -35 -20 -67 -8 -18
8 -14 9 60 22 4 0 7 -6 7 -14z m-242 -7 c-6 -18 -28 -21 -28 -4 0 9 7 16 16
16 9 0 14 -5 12 -12z m724 -33 c-5 -28 -25 -29 -30 -3 -2 9 5 18 15 21 10 3
19 5 19 6 1 0 -1 -10 -4 -24z m348 -39 c0 -3 -4 -8 -10 -11 -5 -3 -10 -1 -10
4 0 6 5 11 10 11 6 0 10 -2 10 -4z m77 -243 c-2 -16 -4 -3 -4 27 0 30 2 43 4
28 2 -16 2 -40 0 -55z"/>
<path d="M12740 5871 l0 -79 -32 -7 c-18 -4 -67 -23 -108 -42 -94 -45 -173
-123 -217 -214 -44 -90 -56 -155 -51 -266 l5 -93 -31 -1 c-17 -1 -62 -2 -101
-3 l-70 -1 2 -255 c1 -140 0 -270 -4 -287 l-5 -33 -129 0 -129 0 0 -412 c0
-425 9 -679 21 -603 l6 40 2 -40 c2 -36 3 -38 12 -16 5 13 7 33 3 45 -4 12 -3
18 1 14 12 -11 33 23 27 44 -2 10 -9 18 -15 18 -16 0 36 36 61 43 15 3 25 0
32 -13 14 -26 13 -32 -7 -29 -36 3 -54 -1 -48 -11 5 -8 11 -8 20 0 9 8 14 5
20 -12 6 -20 8 -21 12 -5 3 10 10 16 16 14 7 -2 17 10 22 26 13 41 41 51 31
12 -6 -25 -5 -27 8 -16 15 12 20 8 17 -11 -2 -12 13 -9 35 6 13 10 23 11 31 4
18 -15 35 0 23 21 -9 18 -5 31 11 31 4 0 9 -10 11 -22 3 -20 9 -21 78 -21 41
1 82 -3 90 -8 13 -7 13 -8 0 -9 -13 0 -13 -1 0 -10 12 -7 12 -12 2 -22 -21
-21 -13 -27 36 -27 26 0 56 -1 67 -3 15 -2 19 2 18 19 -1 11 4 26 12 33 16 14
17 13 33 -55 10 -42 16 -36 27 27 l6 36 24 -22 c14 -13 25 -32 25 -42 1 -12 9
-3 24 24 l22 43 19 -25 c24 -31 35 -32 65 -6 27 24 34 25 27 5 -4 -8 -1 -17 5
-21 7 -4 8 -3 4 4 -4 7 -2 12 3 12 15 0 14 27 -1 33 -7 2 -10 7 -6 11 3 4 14
3 25 -2 10 -5 33 -16 52 -26 23 -11 37 -13 45 -6 17 13 36 -7 36 -37 0 -13 5
-23 10 -23 6 0 10 18 10 39 0 34 4 40 26 45 15 4 29 5 32 1 3 -3 0 -5 -6 -5
-7 0 -12 -16 -12 -40 0 -22 5 -40 10 -40 6 0 10 4 10 9 0 5 9 11 21 14 12 3
18 10 14 16 -4 7 4 11 19 11 16 0 26 -6 26 -15 0 -11 11 -15 40 -15 29 0 40 4
40 15 0 18 17 20 23 3 2 -7 -3 -18 -12 -25 -14 -11 -13 -12 7 -13 13 0 31 8
40 17 16 16 17 16 20 0 4 -21 42 -23 42 -2 0 22 40 19 40 -2 1 -10 12 2 25 27
19 36 25 41 30 28 11 -29 25 -21 26 15 1 17 3 24 6 15 2 -10 11 -18 18 -18 8
0 19 8 24 18 10 16 10 16 11 0 0 -10 -5 -18 -12 -18 -20 0 14 -27 43 -34 21
-5 28 -1 39 22 8 15 14 30 14 35 1 4 6 7 11 7 6 0 11 -27 13 -60 2 -35 7 -58
12 -55 6 4 10 -32 11 -89 2 -106 2 -107 10 -121 4 -5 7 -68 8 -139 1 -71 3
-132 6 -134 3 -3 5 328 5 736 l0 741 -137 3 -138 3 -3 288 -2 287 -96 0 -97 0
7 68 c15 151 -37 302 -137 401 -65 64 -108 91 -199 128 l-68 26 0 79 c0 77 0
78 -25 78 -25 0 -25 -1 -25 -79z m-720 -2105 c0 -2 -7 -7 -16 -10 -8 -3 -12
-2 -9 4 6 10 25 14 25 6z m150 -17 c0 -12 -29 -38 -42 -39 -15 0 -8 23 10 36
21 17 32 17 32 3z m202 -21 c-9 -9 -15 -9 -24 0 -9 9 -7 12 12 12 19 0 21 -3
12 -12z m1058 -22 c0 -9 -30 -14 -35 -6 -4 6 3 10 14 10 12 0 21 -2 21 -4z
m-523 -22 c-3 -3 -12 -4 -19 -1 -8 3 -5 6 6 6 11 1 17 -2 13 -5z m373 -4 c0
-5 -2 -10 -4 -10 -3 0 -8 5 -11 10 -3 6 -1 10 4 10 6 0 11 -4 11 -10z m-822
-22 c-3 -7 -11 -13 -18 -13 -7 0 -15 6 -17 13 -3 7 4 12 17 12 13 0 20 -5 18
-12z"/>
<path d="M0 5533 c0 -6 7 -14 16 -17 23 -9 36 -7 29 4 -4 7 3 7 20 0 15 -6 42
-10 62 -10 20 0 52 -4 72 -9 20 -5 62 -15 94 -21 31 -6 55 -15 53 -19 -3 -4 7
-8 22 -9 14 -1 28 -6 31 -10 7 -8 149 -82 159 -82 13 0 -39 31 -134 79 -54 28
-135 60 -179 71 -95 24 -245 38 -245 23z"/>
<path d="M575 5349 c4 -5 20 -16 37 -25 16 -9 27 -11 24 -5 -4 5 -20 16 -36
25 -17 8 -28 10 -25 5z"/>
<path d="M660 5300 c0 -9 39 -25 46 -18 2 3 -7 10 -21 16 -14 6 -25 7 -25 2z"/>
<path d="M727 5269 c7 -7 15 -10 18 -7 3 3 -2 9 -12 12 -14 6 -15 5 -6 -5z"/>
<path d="M791 5236 c10 -9 69 -36 69 -32 0 6 -55 36 -66 36 -4 0 -5 -2 -3 -4z"/>
<path d="M917 5169 c7 -7 15 -10 18 -7 3 3 -2 9 -12 12 -14 6 -15 5 -6 -5z"/>
<path d="M16515 4980 l-50 -5 0 -260 0 -260 -175 -5 -175 -5 1 -25 c1 -14 2
-416 3 -894 0 -478 3 -867 5 -865 2 2 6 93 9 203 6 202 17 281 17 121 0 -108
9 -109 11 -2 1 47 6 81 14 87 7 6 10 21 8 34 -3 13 3 38 12 56 13 26 14 34 4
41 -10 6 -10 11 1 24 13 16 16 15 27 -11 12 -28 12 -28 13 19 0 58 20 63 21 5
1 -41 1 -42 11 -15 11 31 23 34 37 10 6 -10 11 -14 11 -9 0 5 9 1 20 -9 19
-17 21 -17 40 0 20 18 20 17 20 -13 0 -31 2 -32 40 -32 29 0 40 4 40 15 0 20
10 19 26 -2 13 -17 15 -17 28 0 16 21 56 23 56 2 0 -11 7 -13 29 -9 20 4 34 1
47 -14 14 -14 34 -20 77 -21 33 -1 57 3 57 9 0 8 -60 16 -91 12 -4 -1 -9 7
-12 17 -5 20 28 47 38 31 3 -6 1 -10 -4 -10 -6 0 -11 -4 -11 -10 0 -13 77 -13
82 -1 2 5 30 11 63 14 61 5 95 -7 95 -32 0 -22 38 -11 61 18 20 25 25 27 37
15 9 -9 13 -29 10 -54 -6 -61 14 -30 23 36 9 65 29 97 29 46 0 -18 5 -32 11
-32 6 0 8 7 5 16 -5 13 -2 14 11 8 10 -4 33 -7 51 -7 17 1 32 -3 32 -8 0 -5
27 -9 60 -9 59 0 61 1 67 30 4 24 8 28 19 19 10 -8 16 -5 26 10 18 29 28 26
28 -6 0 -18 3 -23 8 -16 8 13 46 18 121 15 l44 -2 -6 -37 c-3 -21 -3 -32 0
-25 7 17 40 15 47 -4 3 -9 6 -28 6 -42 l0 -26 -16 22 c-19 27 -34 28 -34 2 0
-11 7 -20 15 -20 8 0 15 -8 15 -17 0 -14 4 -12 25 7 l25 23 0 -32 c0 -19 4
-30 10 -26 6 3 10 -1 10 -10 0 -9 -4 -13 -10 -10 -5 3 -10 2 -10 -4 0 -5 4
-12 8 -15 4 -2 9 -41 10 -86 1 -45 7 -101 12 -124 5 -22 10 -57 11 -76 1 -34
2 -33 10 10 4 25 8 415 8 867 l1 822 -204 3 c-112 2 -207 6 -211 9 -3 4 -6
115 -5 248 0 160 -3 248 -11 262 -11 21 -14 21 -377 17 -202 -1 -389 -5 -417
-8z m228 -1427 c3 -5 7 -60 8 -123 l4 -115 -29 -3 c-17 -2 -49 -1 -73 3 l-43
6 0 113 c0 62 3 116 7 119 9 10 121 9 126 0z m317 -19 c12 -30 14 -211 3 -217
-5 -2 -37 -1 -73 2 l-65 6 1 60 c0 33 1 86 2 118 l2 57 60 0 c56 0 61 -2 70
-26z m320 -100 l0 -127 -71 6 c-39 3 -73 7 -74 9 -6 6 -8 63 -7 151 l2 87 75
0 75 0 0 -126z m-220 -114 c0 -5 -4 -10 -10 -10 -5 0 -10 5 -10 10 0 6 5 10
10 10 6 0 10 -4 10 -10z m-44 -21 c19 -22 19 -22 -3 -8 -13 8 -23 17 -23 21 0
12 6 9 26 -13z m-781 -9 c3 -5 1 -10 -4 -10 -6 0 -11 5 -11 10 0 6 2 10 4 10
3 0 8 -4 11 -10z m205 0 c0 -5 -5 -10 -11 -10 -5 0 -7 5 -4 10 3 6 8 10 11 10
2 0 4 -4 4 -10z m964 -2 c-3 -4 -9 -8 -15 -8 -5 0 -9 4 -9 8 0 5 7 9 15 9 8 0
12 -4 9 -9z m-309 -38 c-3 -5 -15 -10 -26 -10 -10 0 -19 5 -19 10 0 6 12 10
26 10 14 0 23 -4 19 -10z m85 -15 c0 -9 -9 -15 -25 -15 -24 0 -32 10 -18 23
12 13 43 7 43 -8z m-480 -15 c0 -11 -7 -20 -15 -20 -17 0 -18 2 -9 24 9 23 24
20 24 -4z"/>
<path d="M9956 4443 c-9 -9 -5 -1350 4 -1463 l7 -85 3 80 c2 64 4 73 10 45 l7
-35 4 40 c1 22 2 50 1 63 0 12 3 20 8 17 6 -4 7 6 4 22 -6 32 17 109 32 106 6
-1 8 11 6 27 -5 37 22 52 43 24 13 -18 14 -18 21 -1 9 25 51 40 72 27 11 -6
12 -9 4 -10 -7 0 -11 -4 -8 -9 4 -5 0 -12 -6 -15 -7 -3 1 -3 17 1 41 8 49 14
34 24 -12 7 -11 9 1 10 35 3 66 -4 79 -16 12 -12 19 -12 43 1 15 8 28 18 28
23 0 5 7 11 15 15 11 4 15 -1 15 -19 0 -16 -6 -25 -16 -25 -8 0 -12 -4 -9 -10
11 -18 41 -11 63 15 26 30 42 32 42 5 0 -11 -5 -20 -11 -20 -6 0 -4 -7 5 -15
18 -18 32 -19 42 -3 4 6 3 8 -2 5 -6 -3 -16 -2 -22 2 -7 4 14 8 47 8 33 0 67
5 75 12 9 8 37 11 74 9 46 -2 63 1 76 15 10 10 26 16 35 13 9 -3 48 -8 86 -11
63 -6 73 -5 98 15 21 17 31 20 40 11 18 -18 35 -13 67 20 22 23 30 27 30 15 0
-9 5 -16 10 -16 6 0 10 -12 10 -27 0 -45 12 -103 21 -103 4 0 7 35 7 78 0 42
0 311 1 597 1 286 1 526 1 533 0 9 -127 12 -603 12 -332 0 -607 -3 -611 -7z
m601 -1145 c-2 -13 -4 -3 -4 22 0 25 2 35 4 23 2 -13 2 -33 0 -45z"/>
<path d="M14516 4232 c-2 -4 6 -9 20 -10 13 -1 24 3 24 8 0 12 -37 14 -44 2z"/>
<path d="M14740 4150 c0 -5 7 -10 15 -10 8 0 15 5 15 10 0 6 -7 10 -15 10 -8
0 -15 -4 -15 -10z"/>
<path d="M14968 4153 c7 -3 16 -2 19 1 4 3 -2 6 -13 5 -11 0 -14 -3 -6 -6z"/>
<path d="M15451 4136 c-10 -11 -8 -16 9 -21 26 -8 35 -1 27 20 -8 19 -21 19
-36 1z"/>
<path d="M15280 4110 c0 -5 5 -10 10 -10 6 0 10 5 10 10 0 6 -4 10 -10 10 -5
0 -10 -4 -10 -10z"/>
<path d="M15200 4090 c0 -5 5 -10 10 -10 6 0 10 5 10 10 0 6 -4 10 -10 10 -5
0 -10 -4 -10 -10z"/>
<path d="M15345 4070 c3 -5 8 -10 11 -10 2 0 4 5 4 10 0 6 -5 10 -11 10 -5 0
-7 -4 -4 -10z"/>
<path d="M12240 3655 c0 -21 5 -25 28 -25 19 0 23 3 13 9 -8 5 -11 16 -8 25 5
11 1 16 -13 16 -15 0 -20 -7 -20 -25z"/>
<path d="M12071 3634 c0 -11 3 -14 6 -6 3 7 2 16 -1 19 -3 4 -6 -2 -5 -13z"/>
<path d="M12320 3636 c0 -9 5 -16 10 -16 6 0 10 4 10 9 0 6 -4 13 -10 16 -5 3
-10 -1 -10 -9z"/>
<path d="M13528 3603 c7 -3 16 -2 19 1 4 3 -2 6 -13 5 -11 0 -14 -3 -6 -6z"/>
<path d="M12858 3593 c7 -3 16 -2 19 1 4 3 -2 6 -13 5 -11 0 -14 -3 -6 -6z"/>
<path d="M18709 3491 c-14 -5 -36 -14 -50 -22 -17 -10 -78 -15 -214 -19 l-190
-5 1 -37 c0 -21 1 -277 2 -570 1 -292 4 -529 6 -527 3 2 8 103 11 224 4 120
11 230 16 243 5 13 9 38 9 57 0 18 6 36 13 38 9 4 9 6 0 6 -9 1 -9 9 -2 30 5
15 9 32 8 37 -6 36 3 55 38 69 28 12 38 13 44 3 6 -9 11 -9 24 2 13 10 13 15
3 21 -10 7 -9 9 4 9 27 0 48 -11 48 -27 0 -24 24 -9 41 27 16 34 16 34 30 12
18 -28 85 -32 92 -4 3 10 5 5 7 -13 1 -16 5 -39 10 -50 l9 -20 2 20 c3 30 5
38 14 59 7 16 9 15 21 -10 7 -16 13 -23 13 -16 1 6 7 12 14 12 7 0 20 9 30 20
18 21 37 26 37 10 0 -5 18 -10 40 -10 22 0 40 -4 40 -10 0 -17 25 -11 43 10
12 14 24 19 40 15 15 -4 31 1 45 14 15 12 33 18 48 15 24 -4 34 11 12 18 -6 2
-8 10 -4 16 9 15 46 16 46 2 0 -6 12 -22 27 -36 27 -25 27 -25 35 -5 10 29 32
26 45 -6 l10 -28 8 28 c9 33 25 36 26 5 3 -64 8 -89 18 -101 6 -8 9 -16 6 -18
-2 -3 0 -47 6 -99 6 -52 11 -138 11 -190 0 -86 1 -90 9 -44 4 28 7 219 6 425
l-2 374 -245 5 c-234 5 -246 6 -277 28 -33 23 -43 25 -84 13z m408 -323 c-3
-7 -5 -2 -5 12 0 14 2 19 5 13 2 -7 2 -19 0 -25z m-77 -33 c0 -8 -7 -15 -15
-15 -26 0 -18 20 13 29 1 1 2 -6 2 -14z m-640 -86 c0 -5 -9 -9 -20 -9 -19 0
-26 11 -14 23 8 8 34 -3 34 -14z"/>
<path d="M11041 3234 c0 -11 3 -14 6 -6 3 7 2 16 -1 19 -3 4 -6 -2 -5 -13z"/>
<path d="M17370 3215 c-10 -12 -10 -15 4 -15 10 0 15 -4 12 -8 -2 -4 -1 -14 5
-22 7 -12 9 -9 9 10 0 38 -14 55 -30 35z"/>
<path d="M17432 3195 c-1 -14 1 -25 4 -25 12 0 35 31 29 40 -12 19 -31 10 -33
-15z"/>
<path d="M17041 3185 c-1 -11 -4 -31 -6 -45 l-6 -25 11 25 c6 13 9 33 7 45 -4
19 -4 19 -6 0z"/>
<path d="M17531 3188 c0 -7 4 -22 8 -32 7 -19 8 -18 14 4 3 13 4 27 1 32 -8
12 -24 10 -23 -4z"/>
<path d="M16880 3165 c0 -10 7 -15 18 -13 21 4 19 22 -2 26 -10 2 -16 -3 -16
-13z"/>
<path d="M17138 3163 c12 -2 32 -2 45 0 12 2 2 4 -23 4 -25 0 -35 -2 -22 -4z"/>
<path d="M16621 3024 c0 -11 3 -14 6 -6 3 7 2 16 -1 19 -3 4 -6 -2 -5 -13z"/>
<path d="M17248 3033 c7 -3 16 -2 19 1 4 3 -2 6 -13 5 -11 0 -14 -3 -6 -6z"/>
<path d="M13652 3010 c0 -14 2 -19 5 -12 2 6 2 18 0 25 -3 6 -5 1 -5 -13z"/>
<path d="M17270 3020 c-12 -8 -9 -10 13 -10 16 0 26 4 22 10 -8 12 -16 12 -35
0z"/>
<path d="M18880 3020 c0 -5 9 -10 20 -10 11 0 20 5 20 10 0 6 -9 10 -20 10
-11 0 -20 -4 -20 -10z"/>
<path d="M16703 3013 c9 -2 23 -2 30 0 6 3 -1 5 -18 5 -16 0 -22 -2 -12 -5z"/>
<path d="M17330 3016 c0 -9 30 -14 35 -6 4 6 -3 10 -14 10 -12 0 -21 -2 -21
-4z"/>
<path d="M17380 3000 c0 -5 5 -10 11 -10 5 0 7 5 4 10 -3 6 -8 10 -11 10 -2 0
-4 -4 -4 -10z"/>
<path d="M8410 2975 c0 -8 5 -15 10 -15 6 0 10 7 10 15 0 8 -4 15 -10 15 -5 0
-10 -7 -10 -15z"/>
<path d="M13652 2945 c0 -16 2 -22 5 -12 2 9 2 23 0 30 -3 6 -5 -1 -5 -18z"/>
<path d="M13652 2890 c0 -14 2 -19 5 -12 2 6 2 18 0 25 -3 6 -5 1 -5 -13z"/>
<path d="M9961 2874 c0 -11 3 -14 6 -6 3 7 2 16 -1 19 -3 4 -6 -2 -5 -13z"/>
<path d="M17717 2697 c-11 -29 -9 -43 4 -30 6 6 9 19 7 29 -3 18 -4 18 -11 1z"/>
<path d="M16121 2624 c0 -11 3 -14 6 -6 3 7 2 16 -1 19 -3 4 -6 -2 -5 -13z"/>
<path d="M19098 2455 c-13 -23 -15 -24 -42 -9 -26 13 -32 13 -44 0 -10 -10
-11 -19 -4 -32 8 -14 5 -28 -11 -57 -17 -30 -19 -43 -11 -65 6 -17 17 -26 28
-25 11 0 15 -4 12 -13 -7 -19 5 -78 14 -64 8 13 37 3 44 -16 4 -11 -5 -14 -41
-14 -63 0 -43 -21 26 -28 42 -4 51 -2 51 12 0 12 10 16 40 16 34 0 40 -3 40
-21 0 -27 24 -19 28 9 3 17 10 22 32 22 25 0 30 5 36 35 3 19 4 44 1 55 -3 11
-1 20 3 20 5 0 2 21 -7 47 -21 62 -112 153 -153 153 -21 0 -33 -7 -42 -25z
m102 -260 c0 -8 -4 -15 -10 -15 -5 0 -7 7 -4 15 4 8 8 15 10 15 2 0 4 -7 4
-15z"/>
<path d="M19340 2413 c1 -19 19 -35 34 -30 21 8 9 37 -15 37 -10 0 -19 -3 -19
-7z"/>
<path d="M19385 2370 c3 -5 8 -10 11 -10 2 0 4 5 4 10 0 6 -5 10 -11 10 -5 0
-7 -4 -4 -10z"/>
<path d="M18930 2250 c0 -5 7 -10 15 -10 8 0 15 -4 15 -9 0 -4 -11 -6 -25 -3
-18 3 -25 0 -25 -12 0 -11 9 -16 26 -16 17 0 28 -6 31 -20 3 -11 9 -20 13 -20
7 0 25 70 18 74 -2 0 -13 7 -25 14 -27 15 -43 16 -43 2z"/>
<path d="M9514 2192 c4 -3 12 -7 19 -8 7 -1 21 -5 32 -10 16 -5 18 -4 8 6 -6
7 -24 14 -38 16 -15 1 -24 0 -21 -4z"/>
<path d="M18925 2170 c-3 -5 3 -10 14 -10 12 0 21 5 21 10 0 6 -6 10 -14 10
-8 0 -18 -4 -21 -10z"/>
<path d="M18960 2124 c0 -8 5 -12 10 -9 6 4 8 11 5 16 -9 14 -15 11 -15 -7z"/>
<path d="M13754 1939 c-19 -21 -19 -22 1 -16 57 15 76 17 70 7 -3 -5 -1 -10 5
-10 6 0 10 8 8 18 -5 27 -60 28 -84 1z"/>
<path d="M13705 1900 c-3 -5 -1 -10 4 -10 6 0 11 5 11 10 0 6 -2 10 -4 10 -3
0 -8 -4 -11 -10z"/>
<path d="M16110 1900 c0 -5 4 -10 9 -10 6 0 13 5 16 10 3 6 -1 10 -9 10 -9 0
-16 -4 -16 -10z"/>
<path d="M13844 1874 c4 -9 1 -24 -6 -33 -10 -13 -10 -14 2 -3 19 17 30 15 30
-5 0 -14 2 -15 9 -4 11 17 23 -33 17 -66 -5 -22 25 -53 49 -53 5 0 2 5 -7 10
-9 6 -22 34 -28 63 -6 28 -22 64 -35 80 -27 30 -40 35 -31 11z"/>
<path d="M16195 1820 c3 -5 10 -10 16 -10 5 0 9 5 9 10 0 6 -7 10 -16 10 -8 0
-12 -4 -9 -10z"/>
<path d="M16240 1772 c0 -10 11 -24 24 -31 13 -7 29 -24 36 -37 7 -13 17 -21
21 -18 5 3 0 15 -11 26 -11 12 -20 25 -20 29 0 4 -9 9 -21 12 -12 3 -18 10
-15 16 4 5 2 12 -4 16 -5 3 -10 -2 -10 -13z"/>
<path d="M13532 1748 c-7 -7 -12 -18 -12 -26 0 -10 3 -10 16 2 8 9 22 16 30
16 8 0 12 5 9 10 -8 14 -28 13 -43 -2z"/>
<path d="M16345 1660 c3 -5 10 -10 16 -10 5 0 9 5 9 10 0 6 -7 10 -16 10 -8 0
-12 -4 -9 -10z"/>
<path d="M16370 1630 c0 -5 5 -10 10 -10 6 0 10 5 10 10 0 6 -4 10 -10 10 -5
0 -10 -4 -10 -10z"/>
<path d="M16386 1578 c3 -5 10 -6 15 -3 13 9 11 12 -6 12 -8 0 -12 -4 -9 -9z"/>
<path d="M12905 1490 c-3 -5 1 -10 10 -10 9 0 13 5 10 10 -3 6 -8 10 -10 10
-2 0 -7 -4 -10 -10z"/>
<path d="M16510 1485 c-11 -13 -10 -14 4 -9 9 3 16 10 16 15 0 13 -6 11 -20
-6z"/>
<path d="M12965 1471 c-3 -11 -12 -22 -19 -24 -19 -8 -57 3 -50 14 3 5 -1 9
-8 9 -19 -1 -75 -28 -60 -29 7 -1 23 4 35 10 21 11 21 11 5 -7 -17 -17 -17
-19 0 -34 15 -15 19 -14 51 7 27 18 36 21 43 11 10 -16 10 -29 1 -26 -13 3
-73 -38 -66 -45 3 -4 17 -7 30 -7 13 0 22 -4 19 -8 -2 -4 0 -14 6 -22 8 -12 9
-12 4 3 -3 9 -1 17 4 17 6 0 10 5 10 10 0 6 -10 10 -22 10 -17 0 -19 3 -10 12
19 19 42 -10 43 -56 l1 -41 8 35 c5 19 5 39 0 45 -10 12 -18 97 -9 87 4 -4 9
-18 12 -32 3 -21 5 -19 6 8 0 19 5 31 11 27 6 -3 10 1 10 9 0 8 -9 20 -19 26
-26 14 -29 13 -36 -9z m-60 -41 c-3 -5 -10 -10 -16 -10 -5 0 -9 5 -9 10 0 6 7
10 16 10 8 0 12 -4 9 -10z"/>
<path d="M13021 1414 c0 -11 3 -14 6 -6 3 7 2 16 -1 19 -3 4 -6 -2 -5 -13z"/>
<path d="M13011 1353 c0 -25 1 -26 9 -8 12 27 12 35 0 35 -5 0 -10 -12 -9 -27z"/>
<path d="M12880 1310 c0 -19 3 -21 12 -12 9 9 9 15 0 24 -9 9 -12 7 -12 -12z"/>
</g>
</svg>
